<?xml version="1.0" standalone="no"?>
<!DOCTYPE svg PUBLIC "-//W3C//DTD SVG 20010904//EN"
 "http://www.w3.org/TR/2001/REC-SVG-20010904/DTD/svg10.dtd">
<svg version="1.0" xmlns="http://www.w3.org/2000/svg"
 width="112.000000pt" height="58.000000pt" viewBox="0 0 112.000000 58.000000"
 preserveAspectRatio="xMidYMid meet">

<g transform="translate(0.000000,58.000000) scale(0.100000,-0.100000)"
fill="#000000" stroke="none">
<path d="M526 344 c-26 -25 -24 -30 36 -74 35 -27 27 -48 -20 -53 l-37 -4 36
-1 c66 -3 77 43 19 76 -16 9 -30 24 -30 33 0 19 23 31 45 23 8 -4 15 -1 15 5
0 17 -46 13 -64 -5z"/>
<path d="M641 283 c1 -49 4 -67 8 -48 4 20 14 31 30 35 13 3 30 15 37 26 20
29 -6 64 -47 64 l-29 0 1 -77z m55 53 c15 -12 17 -18 8 -33 -24 -38 -67 -10
-50 33 7 18 17 18 42 0z"/>
<path d="M776 339 c-20 -16 -26 -29 -26 -58 0 -49 24 -71 76 -70 l39 2 -40 6
c-30 5 -43 12 -53 33 -23 49 21 108 70 92 14 -4 18 -2 14 5 -11 18 -51 13 -80
-10z"/>
<path d="M890 285 c0 -43 4 -75 10 -75 6 0 10 14 10 30 0 23 5 30 19 30 23 0
51 25 51 45 0 23 -30 45 -61 45 l-29 0 0 -75z m54 59 c34 -13 14 -64 -25 -64
-5 0 -9 16 -9 35 0 35 5 40 34 29z"/>
</g>
</svg>
